# xmcd
#
# Track frame offsets:
#	150
#	14777
#	28685
#	40237
#	52935
#	68092
#	80977
#	97135
#	112042
#	123415
#
# Disc length: 1883 seconds
#
# Revision: 2
# Processed by: cddbd v1.5.1PL2 Copyright (c) Steve Scherf et al.
# Submitted via: dBpowerAMP V4.0
#
DISCID=8d07590a
DTITLE=Ricky Lynn Gregg - Ricky Lynn Gregg
DYEAR=1993
DGENRE=Country
TTITLE0=A Good Habit Is Hard To Break
TTITLE1=If I Had A Cheatin' Heart
TTITLE2=Alright Already
TTITLE3=Bring On The Neon
TTITLE4=No Place Left To Go
TTITLE5=Can You Feel It
TTITLE6=That's What Happens
TTITLE7=The Change (Is Gonna Do Me Good)
TTITLE8=Three Nickels And A Dime
TTITLE9=Cheyenne
EXTD=
EXTT0=
EXTT1=
EXTT2=
EXTT3=
EXTT4=
EXTT5=
EXTT6=
EXTT7=
EXTT8=
EXTT9=
PLAYORDER=
